<?xml version="1.0" standalone="no"?>
<svg viewBox="0 0 200 200" xmlns="http://www.w3.org/2000/svg">
  <path fill="#FA4D56" d="M44.6,-77.2C56.8,-70.2,65.1,-56.2,70.9,-42.2C76.7,-28.2,80.1,-14.1,81.8,1C83.5,16.1,83.4,32.1,76.4,44.1C69.4,56,55.4,63.9,41.5,72C27.6,80.1,13.8,88.4,-0.7,89.6C-15.2,90.8,-30.4,84.9,-41.3,75.1C-52.2,65.3,-58.8,51.5,-67,38.3C-75.3,25.1,-85.3,12.6,-87.5,-1.2C-89.6,-15,-83.9,-30.1,-74.8,-41.9C-65.8,-53.8,-53.4,-62.4,-40.4,-68.9C-27.3,-75.5,-13.7,-80,1.3,-82.1C16.2,-84.3,32.4,-84.2,44.6,-77.2Z" transform="translate(100 100)" />
</svg>
