<?xml version="1.0" standalone="no"?>
<svg viewBox="0 0 200 200" xmlns="http://www.w3.org/2000/svg">
  <path fill="#FA4D56" d="M44.7,-70.3C57.2,-61.5,66.1,-47.9,73.9,-33.1C81.7,-18.2,88.6,-2.3,87.9,13.7C87.3,29.7,79.3,45.8,68,59.1C56.7,72.5,42.2,83.2,26.6,85.4C11.1,87.6,-5.5,81.2,-22.6,76.5C-39.8,71.7,-57.5,68.5,-67.9,58C-78.2,47.5,-81,29.8,-81.1,13.2C-81.1,-3.5,-78.4,-19,-73,-34.3C-67.5,-49.6,-59.4,-64.7,-46.8,-73.5C-34.2,-82.2,-17.1,-84.5,-0.5,-83.8C16.1,-83,32.2,-79.1,44.7,-70.3Z" transform="translate(100 100)" />
</svg>
