<?xml version="1.0" standalone="no"?>
<svg viewBox="0 0 200 200" xmlns="http://www.w3.org/2000/svg">
  <path fill="#FA4D56" d="M42.7,-71.6C55.7,-66.4,66.9,-55.7,76,-42.9C85.1,-30.1,92.1,-15,93.4,0.7C94.7,16.5,90.3,33,81.7,46.8C73.1,60.6,60.4,71.6,46.1,76.3C31.8,81.1,15.9,79.6,1.6,76.8C-12.7,74.1,-25.5,70.1,-37.7,64.2C-49.9,58.2,-61.6,50.3,-69.7,39.3C-77.7,28.2,-82,14.1,-82.5,-0.3C-83.1,-14.8,-79.9,-29.5,-71.9,-40.6C-63.9,-51.7,-51.2,-59.1,-38.4,-64.4C-25.6,-69.8,-12.8,-73.1,1,-74.9C14.8,-76.6,29.6,-76.8,42.7,-71.6Z" transform="translate(100 100)" />
</svg>
