<?xml version="1.0" standalone="no"?>
<svg viewBox="0 0 200 200" xmlns="http://www.w3.org/2000/svg">
  <path fill="#FA4D56" d="M39.8,-64.8C52.3,-53.9,63.7,-44.1,72,-31.3C80.2,-18.5,85.4,-2.8,83.6,12.2C81.7,27.2,72.9,41.4,61.5,51.5C50,61.7,35.8,67.7,20.9,73C5.9,78.3,-9.9,82.8,-23.7,79.4C-37.6,76,-49.6,64.7,-60.5,52.3C-71.4,39.9,-81.2,26.5,-84.8,11.3C-88.4,-4,-85.9,-21,-77.7,-34C-69.4,-47,-55.5,-55.9,-41.6,-66.1C-27.8,-76.3,-13.9,-87.9,-0.1,-87.7C13.7,-87.5,27.3,-75.6,39.8,-64.8Z" transform="translate(100 100)" />
</svg>
