<?xml version="1.0" standalone="no"?>
<svg viewBox="0 0 200 200" xmlns="http://www.w3.org/2000/svg">
  <path fill="#FA4D56" d="M45.1,-70.7C59,-61.2,71.4,-49.7,79.9,-35.3C88.4,-20.8,93.1,-3.4,91.2,13.5C89.4,30.3,80.9,46.5,68.2,56.6C55.6,66.7,38.7,70.5,22,75.8C5.3,81,-11.2,87.6,-26.5,85.3C-41.9,83.1,-56.1,72,-67.8,58.6C-79.6,45.3,-88.9,29.7,-91.1,13.2C-93.3,-3.3,-88.5,-20.8,-79,-33.8C-69.5,-46.8,-55.3,-55.4,-41.4,-65C-27.4,-74.5,-13.7,-84.9,0.9,-86.3C15.6,-87.8,31.1,-80.2,45.1,-70.7Z" transform="translate(100 100)" />
</svg>
