<?xml version="1.0" standalone="no"?>
<svg viewBox="0 0 200 200" xmlns="http://www.w3.org/2000/svg">
  <path fill="#FA4D56" d="M46.3,-74.4C59,-63.8,67.7,-49.4,74.4,-34.1C81.1,-18.9,85.8,-2.9,85.6,13.7C85.4,30.4,80.3,47.7,69.5,60.3C58.7,72.9,42.3,80.6,26,82.9C9.6,85.1,-6.7,81.8,-22.3,76.9C-37.9,71.9,-52.6,65.1,-61.8,53.9C-71,42.7,-74.6,27,-75.8,11.5C-77.1,-3.9,-76,-19,-70.2,-32.2C-64.4,-45.3,-53.9,-56.4,-41.4,-67.1C-28.9,-77.8,-14.5,-88.1,1.2,-89.9C16.8,-91.7,33.6,-85,46.3,-74.4Z" transform="translate(100 100)" />
</svg>
