<?xml version="1.0" standalone="no"?>
<svg viewBox="0 0 200 200" xmlns="http://www.w3.org/2000/svg">
  <path fill="#FA4D56" d="M43.7,-75.5C57.1,-67.9,68.8,-57.2,74.5,-44.1C80.1,-31,79.8,-15.5,79,-0.4C78.2,14.6,77.1,29.2,71,41.7C65,54.1,54,64.3,41.3,73.5C28.7,82.6,14.3,90.7,0.6,89.6C-13.2,88.6,-26.3,78.5,-39.7,69.7C-53,61,-66.6,53.7,-75.6,42.3C-84.7,30.9,-89.1,15.4,-90,-0.5C-90.9,-16.5,-88.3,-32.9,-79.8,-45.3C-71.3,-57.6,-57,-65.8,-42.7,-72.9C-28.5,-80,-14.2,-86,0.5,-86.8C15.1,-87.6,30.3,-83.1,43.7,-75.5Z" transform="translate(100 100)" />
</svg>
