<?xml version="1.0" standalone="no"?>
<svg viewBox="0 0 200 200" xmlns="http://www.w3.org/2000/svg">
  <path fill="#FA4D56" d="M46.3,-69.4C59.4,-63.6,69.1,-49.8,75.1,-34.8C81.2,-19.8,83.7,-3.7,79.1,9.7C74.6,23.1,63,33.8,52.8,46.2C42.7,58.6,34.1,72.7,21.6,78.7C9.1,84.6,-7.2,82.4,-19.8,75.2C-32.5,68,-41.4,55.8,-52,44.5C-62.6,33.2,-75,22.9,-77.1,10.8C-79.3,-1.3,-71.3,-15.1,-62.5,-26.1C-53.6,-37.1,-44,-45.3,-33.5,-52.3C-22.9,-59.4,-11.5,-65.2,2.6,-69.2C16.6,-73.2,33.2,-75.3,46.3,-69.4Z" transform="translate(100 100)" />
</svg>
